arm28_CheckCMCwithFD_states
version=1
nRows=25
nColumns=21
inDegrees=yes

# SIMM Motion File Header:
name arm28_CheckCMCwithFD_states
datacolumns 21
datarows 25
otherdata 1
range 4.26267719 4.48947386
endheader
time	r_shoulder_elev	r_elbow_flex	r_shoulder_elev_u	r_elbow_flex_u	TRIlong.activation	TRIlong.fiber_length	TRIlat.activation	TRIlat.fiber_length	TRImed.activation	TRImed.fiber_length	BIClong.activation	BIClong.fiber_length	BICshort.activation	BICshort.fiber_length	BRA.activation	BRA.fiber_length	DeltAnt.activation	DeltAnt.fiber_length	DeltPost.activation	DeltPost.fiber_length
      4.26267719	      0.39389875	     18.53053179	      0.10306262	     -0.83887090	      0.05000000	      0.14352005	      0.05000000	      0.07726066	      0.05000000	      0.07231870	      0.09681500	      0.13987411	      0.11102549	      0.14185374	      0.06968359	      0.08639969	      0.05000000	      0.16173390	      0.10725915	      0.10871367
      4.27169324	      0.39482901	     18.52293819	      0.10303448	     -0.84497014	      0.05000000	      0.14351757	      0.05000000	      0.07725759	      0.05000000	      0.07231565	      0.09683778	      0.13987633	      0.11106649	      0.14185615	      0.06968609	      0.08640018	      0.05000000	      0.16173334	      0.10725913	      0.10871448
      4.28266636	      0.39596026	     18.51362924	      0.10376307	     -0.85286574	      0.05000000	      0.14351454	      0.05000000	      0.07725382	      0.05000000	      0.07231189	      0.09682947	      0.13987905	      0.11104882	      0.14185911	      0.06968349	      0.08640079	      0.05000000	      0.16173267	      0.10725912	      0.10871546
      4.29121398	      0.39684889	     18.50631417	      0.10402658	     -0.85857907	      0.05000000	      0.14351215	      0.05000000	      0.07725086	      0.05000000	      0.07230895	      0.09681974	      0.13988123	      0.11102911	      0.14186154	      0.06968118	      0.08640127	      0.05000000	      0.16173214	      0.10725974	      0.10871624
      4.29976161	      0.39774290	     18.49894019	      0.10525173	     -0.86716202	      0.05000000	      0.14350974	      0.05000000	      0.07724788	      0.05000000	      0.07230598	      0.09681716	      0.13988346	      0.11102336	      0.14186401	      0.06968136	      0.08640176	      0.05000000	      0.16173161	      0.10725974	      0.10871701
      4.31012476	      0.39883674	     18.48990534	      0.10541159	     -0.87558626	      0.05000000	      0.14350679	      0.05000000	      0.07724423	      0.05000000	      0.07230234	      0.09684434	      0.13988612	      0.11107230	      0.14186693	      0.06968470	      0.08640234	      0.05000000	      0.16173096	      0.10725962	      0.10871796
      4.32048790	      0.39992998	     18.48079324	      0.10635121	     -0.88441727	      0.05000000	      0.14350381	      0.05000000	      0.07724055	      0.05000000	      0.07229867	      0.09684317	      0.13988875	      0.11106867	      0.14186977	      0.06968313	      0.08640293	      0.05000000	      0.16173031	      0.10725959	      0.10871892
      4.32853613	      0.40078475	     18.47365828	      0.10606527	     -0.88869491	      0.05000000	      0.14350147	      0.05000000	      0.07723766	      0.05000000	      0.07229579	      0.09683377	      0.13989087	      0.11104955	      0.14187210	      0.06968076	      0.08640339	      0.05000000	      0.16172980	      0.10725997	      0.10871966
      4.33658435	      0.40164282	     18.46647533	      0.10721852	     -0.89651870	      0.05000000	      0.14349912	      0.05000000	      0.07723476	      0.05000000	      0.07229290	      0.09682848	      0.13989303	      0.11103879	      0.14187449	      0.06967962	      0.08640387	      0.05000000	      0.16172929	      0.10726039	      0.10872041
      4.34732123	      0.40279894	     18.45679563	      0.10782662	     -0.90606369	      0.05000000	      0.14349595	      0.05000000	      0.07723085	      0.05000000	      0.07228900	      0.09684336	      0.13989591	      0.11106475	      0.14187767	      0.06968286	      0.08640449	      0.05000000	      0.16172860	      0.10726040	      0.10872141
      4.35735711	      0.40388214	     18.44766332	      0.10833438	     -0.91422993	      0.05000000	      0.14349295	      0.05000000	      0.07722715	      0.05000000	      0.07228532	      0.09684730	      0.13989858	      0.11107121	      0.14188058	      0.06968217	      0.08640508	      0.05000000	      0.16172796	      0.10726036	      0.10872235
      4.36739298	      0.40497308	     18.43844450	      0.10864132	     -0.92215258	      0.05000000	      0.14348993	      0.05000000	      0.07722343	      0.05000000	      0.07228161	      0.09683664	      0.13990132	      0.11104929	      0.14188359	      0.06967933	      0.08640568	      0.05000000	      0.16172730	      0.10726058	      0.10872330
      4.37555906	      0.40586582	     18.43087655	      0.11009936	     -0.93168430	      0.05000000	      0.14348744	      0.05000000	      0.07722037	      0.05000000	      0.07227856	      0.09683095	      0.13990360	      0.11103760	      0.14188612	      0.06967793	      0.08640617	      0.05000000	      0.16172678	      0.10726105	      0.10872408
      4.38372514	      0.40676687	     18.42323489	      0.11050788	     -0.93983847	      0.05000000	      0.14348494	      0.05000000	      0.07721729	      0.05000000	      0.07227549	      0.09683717	      0.13990589	      0.11104760	      0.14188865	      0.06967963	      0.08640667	      0.05000000	      0.16172624	      0.10726100	      0.10872486
      4.39436920	      0.40794540	     18.41317585	      0.11104781	     -0.95021572	      0.05000000	      0.14348163	      0.05000000	      0.07721322	      0.05000000	      0.07227144	      0.09686703	      0.13990880	      0.11110138	      0.14189181	      0.06968185	      0.08640731	      0.05000000	      0.16172554	      0.10726096	      0.10872588
      4.40501325	      0.40912729	     18.40302121	      0.11060926	     -0.95683666	      0.05000000	      0.14347829	      0.05000000	      0.07720912	      0.05000000	      0.07226735	      0.09685418	      0.13991177	      0.11107521	      0.14189503	      0.06967846	      0.08640797	      0.05000000	      0.16172483	      0.10726103	      0.10872691
      4.41309053	      0.41002637	     18.39525788	      0.11215806	     -0.96581840	      0.05000000	      0.14347572	      0.05000000	      0.07720598	      0.05000000	      0.07226422	      0.09684667	      0.13991409	      0.11106010	      0.14189759	      0.06967672	      0.08640847	      0.05000000	      0.16172430	      0.10726177	      0.10872770
      4.42116781	      0.41093495	     18.38742564	      0.11273449	     -0.97346204	      0.05000000	      0.14347314	      0.05000000	      0.07720281	      0.05000000	      0.07226107	      0.09684627	      0.13991644	      0.11105862	      0.14190019	      0.06967700	      0.08640898	      0.05000000	      0.16172376	      0.10726173	      0.10872848
      4.43230778	      0.41219496	     18.37652029	      0.11358453	     -0.98455453	      0.05000000	      0.14346955	      0.05000000	      0.07719841	      0.05000000	      0.07225668	      0.09686983	      0.13991965	      0.11110068	      0.14190368	      0.06967995	      0.08640968	      0.05000000	      0.16172301	      0.10726163	      0.10872958
      4.44229417	      0.41333023	     18.36664868	      0.11352424	     -0.99185282	      0.05000000	      0.14346629	      0.05000000	      0.07719442	      0.05000000	      0.07225271	      0.09686187	      0.13992254	      0.11108431	      0.14190683	      0.06967756	      0.08641031	      0.05000000	      0.16172233	      0.10726157	      0.10873057
      4.45228057	      0.41446995	     18.35669355	      0.11527424	     -1.00315360	      0.05000000	      0.14346299	      0.05000000	      0.07719039	      0.05000000	      0.07224869	      0.09685190	      0.13992552	      0.11106407	      0.14191012	      0.06967502	      0.08641096	      0.05000000	      0.16172166	      0.10726223	      0.10873156
      4.46088079	      0.41546379	     18.34802926	      0.11560599	     -1.01139537	      0.05000000	      0.14346013	      0.05000000	      0.07718690	      0.05000000	      0.07224521	      0.09685154	      0.13992813	      0.11106243	      0.14191301	      0.06967534	      0.08641152	      0.05000000	      0.16172106	      0.10726217	      0.10873242
      4.46948101	      0.41646190	     18.33928849	      0.11654164	     -1.02133597	      0.05000000	      0.14345724	      0.05000000	      0.07718336	      0.05000000	      0.07224169	      0.09687497	      0.13993071	      0.11110443	      0.14191582	      0.06967834	      0.08641207	      0.05000000	      0.16172047	      0.10726208	      0.10873329
      4.47808123	      0.41746420	     18.33047310	      0.11653985	     -1.02857226	      0.05000000	      0.14345433	      0.05000000	      0.07717980	      0.05000000	      0.07223814	      0.09687659	      0.13993327	      0.11110656	      0.14191858	      0.06967762	      0.08641263	      0.05000000	      0.16171987	      0.10726206	      0.10873416
      4.48947386	      0.41879548	     18.31869755	      0.11764000	     -1.03969642	      0.05000000	      0.14345042	      0.05000000	      0.07717504	      0.05000000	      0.07223340	      0.09686403	      0.13993676	      0.11108095	      0.14192241	      0.06967434	      0.08641339	      0.05000000	      0.16171908	      0.10726251	      0.10873532
